HIERARCHY
ROOT hips_JNT
{
    OFFSET 0 0 0
    CHANNELS 6 Xposition Yposition Zposition Zrotation Xrotation Yrotation
    JOINT spine_JNT
    {
        OFFSET -0.000424254 9.31981 2.54342
        CHANNELS 3 Zrotation Xrotation Yrotation
        JOINT spine1_JNT
        {
            OFFSET 0 10.8731 -4.54485e-05
            CHANNELS 3 Zrotation Xrotation Yrotation
            JOINT spine2_JNT
            {
                OFFSET 0 12.4264 -5.95116
                CHANNELS 3 Zrotation Xrotation Yrotation
                JOINT neck_JNT
                {
                    OFFSET 0 13.9797 -1.46048
                    CHANNELS 3 Zrotation Xrotation Yrotation
                    JOINT head_JNT
                    {
                        OFFSET 0 5.8702 2.0915
                        CHANNELS 3 Zrotation Xrotation Yrotation
                        End Site
                        {
                            OFFSET 0 0 0
                        }
                    }
                }
                JOINT l_shoulder_JNT
                {
                    OFFSET 4.39914 12.861 -1.48501
                    CHANNELS 3 Zrotation Xrotation Yrotation
                    JOINT l_arm_JNT
                    {
                        OFFSET 8.75735 -2.31198 -0.0490516
                        CHANNELS 3 Zrotation Xrotation Yrotation
                        JOINT l_forearm_JNT
                        {
                            OFFSET 26.9001 -4.76837e-05 1.2666e-05
                            CHANNELS 3 Zrotation Xrotation Yrotation
                            JOINT l_hand_JNT
                            {
                                OFFSET 23.0148 -4.76837e-05 -3.72529e-06
                                CHANNELS 3 Zrotation Xrotation Yrotation
                                JOINT l_handThumb1_JNT
                                {
                                    OFFSET 3.63 -0.779998 2.13
                                    CHANNELS 3 Zrotation Xrotation Yrotation
                                    JOINT l_handThumb2_JNT
                                    {
                                        OFFSET 3.55114 -2.11837 2.24006
                                        CHANNELS 3 Zrotation Xrotation Yrotation
                                        JOINT l_handThumb3_JNT
                                        {
                                            OFFSET 2.15911 -1.11631 0.963467
                                            CHANNELS 3 Zrotation Xrotation Yrotation
                                            End Site
                                            {
                                                OFFSET 0 0 0
                                            }
                                        }
                                    }
                                }
                                JOINT l_handIndex1_JNT
                                {
                                    OFFSET 10.5149 -0.0410199 2.19757
                                    CHANNELS 3 Zrotation Xrotation Yrotation
                                    JOINT l_handIndex2_JNT
                                    {
                                        OFFSET 2.75183 -0.102866 -0.139054
                                        CHANNELS 3 Zrotation Xrotation Yrotation
                                        JOINT l_handIndex3_JNT
                                        {
                                            OFFSET 2.35301 -0.0733972 -0.0904871
                                            CHANNELS 3 Zrotation Xrotation Yrotation
                                            End Site
                                            {
                                                OFFSET 0 0 0
                                            }
                                        }
                                    }
                                }
                                JOINT l_handMiddle1_JNT
                                {
                                    OFFSET 10.0671 0.139201 0.0595726
                                    CHANNELS 3 Zrotation Xrotation Yrotation
                                    JOINT l_handMiddle2_JNT
                                    {
                                        OFFSET 3.90903 -0.288403 -0.119066
                                        CHANNELS 3 Zrotation Xrotation Yrotation
                                        JOINT l_handMiddle3_JNT
                                        {
                                            OFFSET 2.3284 -0.0191092 -0.0594396
                                            CHANNELS 3 Zrotation Xrotation Yrotation
                                            End Site
                                            {
                                                OFFSET 0 0 0
                                            }
                                        }
                                    }
                                }
                                JOINT l_handRing1_JNT
                                {
                                    OFFSET 9.46811 0.132239 -1.80983
                                    CHANNELS 3 Zrotation Xrotation Yrotation
                                    JOINT l_handRing2_JNT
                                    {
                                        OFFSET 3.28153 -0.224054 -0.0339366
                                        CHANNELS 3 Zrotation Xrotation Yrotation
                                        JOINT l_handRing3_JNT
                                        {
                                            OFFSET 2.245 -0.0702143 -0.00838935
                                            CHANNELS 3 Zrotation Xrotation Yrotation
                                            End Site
                                            {
                                                OFFSET 0 0 0
                                            }
                                        }
                                    }
                                }
                                JOINT l_handPinky1_JNT
                                {
                                    OFFSET 8.49077 -0.0777721 -3.58415
                                    CHANNELS 3 Zrotation Xrotation Yrotation
                                    JOINT l_handPinky2_JNT
                                    {
                                        OFFSET 2.53217 -0.0730753 -0.0170402
                                        CHANNELS 3 Zrotation Xrotation Yrotation
                                        JOINT l_handPinky3_JNT
                                        {
                                            OFFSET 1.95121 0.0251174 0.0170089
                                            CHANNELS 3 Zrotation Xrotation Yrotation
                                            End Site
                                            {
                                                OFFSET 0 0 0
                                            }
                                        }
                                    }
                                }
                            }
                        }
                    }
                }
                JOINT r_shoulder_JNT
                {
                    OFFSET -4.39782 12.8606 -1.48501
                    CHANNELS 3 Zrotation Xrotation Yrotation
                    JOINT r_arm_JNT
                    {
                        OFFSET -8.75732 -2.312 -0.0490502
                        CHANNELS 3 Zrotation Xrotation Yrotation
                        JOINT r_forearm_JNT
                        {
                            OFFSET -26.9 0 1.00583e-05
                            CHANNELS 3 Zrotation Xrotation Yrotation
                            JOINT r_hand_JNT
                            {
                                OFFSET -23.0149 0 0
                                CHANNELS 3 Zrotation Xrotation Yrotation
                                JOINT r_handThumb1_JNT
                                {
                                    OFFSET -3.63 -0.779998 2.13
                                    CHANNELS 3 Zrotation Xrotation Yrotation
                                    JOINT r_handThumb2_JNT
                                    {
                                        OFFSET -3.5512 -2.118 2.24006
                                        CHANNELS 3 Zrotation Xrotation Yrotation
                                        JOINT r_handThumb3_JNT
                                        {
                                            OFFSET -2.1591 -1.116 0.963467
                                            CHANNELS 3 Zrotation Xrotation Yrotation
                                            End Site
                                            {
                                                OFFSET 0 0 0
                                            }
                                        }
                                    }
                                }
                                JOINT r_handIndex1_JNT
                                {
                                    OFFSET -10.5149 -0.0409961 2.19756
                                    CHANNELS 3 Zrotation Xrotation Yrotation
                                    JOINT r_handIndex2_JNT
                                    {
                                        OFFSET -2.7518 -0.102997 -0.13905
                                        CHANNELS 3 Zrotation Xrotation Yrotation
                                        JOINT r_handIndex3_JNT
                                        {
                                            OFFSET -2.353 -0.0730038 -0.0904899
                                            CHANNELS 3 Zrotation Xrotation Yrotation
                                            End Site
                                            {
                                                OFFSET 0 0 0
                                            }
                                        }
                                    }
                                }
                                JOINT r_handMiddle1_JNT
                                {
                                    OFFSET -10.0671 0.139999 0.05957
                                    CHANNELS 3 Zrotation Xrotation Yrotation
                                    JOINT r_handMiddle2_JNT
                                    {
                                        OFFSET -3.9091 -0.288999 -0.11907
                                        CHANNELS 3 Zrotation Xrotation Yrotation
                                        JOINT r_handMiddle3_JNT
                                        {
                                            OFFSET -2.3284 -0.019002 -0.05944
                                            CHANNELS 3 Zrotation Xrotation Yrotation
                                            End Site
                                            {
                                                OFFSET 0 0 0
                                            }
                                        }
                                    }
                                }
                                JOINT r_handRing1_JNT
                                {
                                    OFFSET -9.4681 0.133002 -1.80983
                                    CHANNELS 3 Zrotation Xrotation Yrotation
                                    JOINT r_handRing2_JNT
                                    {
                                        OFFSET -3.2816 -0.224996 -0.0339396
                                        CHANNELS 3 Zrotation Xrotation Yrotation
                                        JOINT r_handRing3_JNT
                                        {
                                            OFFSET -2.245 -0.0699997 -0.0083901
                                            CHANNELS 3 Zrotation Xrotation Yrotation
                                            End Site
                                            {
                                                OFFSET 0 0 0
                                            }
                                        }
                                    }
                                }
                                JOINT r_handPinky1_JNT
                                {
                                    OFFSET -8.4908 -0.0769973 -3.58415
                                    CHANNELS 3 Zrotation Xrotation Yrotation
                                    JOINT r_handPinky2_JNT
                                    {
                                        OFFSET -2.5322 -0.0740051 -0.0170402
                                        CHANNELS 3 Zrotation Xrotation Yrotation
                                        JOINT r_handPinky3_JNT
                                        {
                                            OFFSET -1.9512 0.0259995 0.0170097
                                            CHANNELS 3 Zrotation Xrotation Yrotation
                                            End Site
                                            {
                                                OFFSET 0 0 0
                                            }
                                        }
                                    }
                                }
                            }
                        }
                    }
                }
            }
        }
    }
    JOINT l_upleg_JNT
    {
        OFFSET 10.0614 -5.18575 -0.706233
        CHANNELS 3 Zrotation Xrotation Yrotation
        JOINT l_leg_JNT
        {
            OFFSET -0.348572 -45.5824 -0.819168
            CHANNELS 3 Zrotation Xrotation Yrotation
            JOINT l_foot_JNT
            {
                OFFSET 0.349145 -42.3325 -1.70849
                CHANNELS 3 Zrotation Xrotation Yrotation
                JOINT l_toebase_JNT
                {
                    OFFSET 0.0702709 -8.12666 12.8887
                    CHANNELS 3 Zrotation Xrotation Yrotation
                    End Site
                    {
                        OFFSET 0 0 0
                    }
                }
            }
        }
    }
    JOINT r_upleg_JNT
    {
        OFFSET -10.061 -5.18577 -0.706233
        CHANNELS 3 Zrotation Xrotation Yrotation
        JOINT r_leg_JNT
        {
            OFFSET 0.34858 -45.5824 -0.819165
            CHANNELS 3 Zrotation Xrotation Yrotation
            JOINT r_foot_JNT
            {
                OFFSET -0.34918 -42.3325 -1.70849
                CHANNELS 3 Zrotation Xrotation Yrotation
                JOINT r_toebase_JNT
                {
                    OFFSET -0.0702001 -8.12666 12.8887
                    CHANNELS 3 Zrotation Xrotation Yrotation
                    End Site
                    {
                        OFFSET 0 0 0
                    }
                }
            }
        }
    }
}
MOTION
Frames: 5
Frame Time: 0.033333
159.813 241.768 4.11729 5.40024 -3.11656 -0.549651 0.184824 -0.247457 1.50867 1.46759e-16 -2.10108e-07 0 -0.0875158 -0.119232 1.06016 6.42099 -18.3637 0.153233 -7.09017 55.1354 2.79855 -4.20217e-07 4.26887e-07 0 -10.6598 -58.6964 -76.5283 2.1082e-07 -3.81237e-06 -46.7998 108.854 -68.4907 90 -16.1265 17.8706 29.0295 -2.38733 6.3136 9.59616 0.835686 2.5397 4.82806 -25.4382 -2.18271 14.9571 -10.8178 0.423448 0.104678 -10.1697 0.39761 0.0884693 -26.1787 -2.93743 14.8211 -28.0603 0.536352 -0.209357 -19.0823 0.353694 -0.163129 -26.8063 -3.51326 14.7132 -30.7434 0.00523743 -0.377423 -15.1235 -0.0227959 -0.185575 -45.3612 -8.78178 13.5887 -20.1222 -1.16398 -0.268341 -9.92445 -0.594048 0 -4.20217e-07 4.26887e-07 0 41.8142 -28.7819 94.9088 -1.01802e-06 -4.14571e-06 78.6671 -105.835 -74.1437 -90 16.2187 17.878 -29.0004 6.52201 9.52552 -13.7753 -1.96773 11.8846 -21.863 28.9148 -2.36869 -14.4423 10.521 0.411145 0.111906 8.1813 0.318089 0.0969133 9.27218 -0.99646 -14.8952 89.6369 1.72071 -0.185575 64.0194 1.28743 0.137056 37.4911 -5.02174 -14.5802 89.9869 0.552781 0.929562 52.1284 0.137801 0.658488 72.4349 -14.2148 -12.0934 87.0736 -2.76932 3.91849 38.5884 -2.03024 1.04004 0.831877 -0.745403 0 -0.473978 5.48801 0.0559529 -5.79225 -1.44731 -0.676083 -0.00228136 -0.818787 -0.30901 0.460734 -9.31426 0.0395647 0.514599 23.5273 -0.227282 -6.46997 -10.8784 -1.56569 0.00222972 -0.806776 0.306467 
159.773 241.774 3.46733 5.46733 -3.50391 -0.800148 0.233598 -0.244491 1.77779 4.26887e-07 -3.33505e-09 0 -0.105542 -0.121751 1.2636 6.61742 -19.0041 0.201741 -7.02941 54.5221 2.74233 4.33557e-07 7.5709e-16 0 -9.4866 -58.1605 -75.6868 6.72349e-06 2.6977e-06 -46.2753 109.122 -68.7044 90 -16.1316 17.8728 29.0303 -2.33617 6.66155 10.2794 0.823343 2.49623 4.74662 -25.1547 -2.15653 14.9536 -10.5987 0.414708 0.104678 -9.84505 0.384685 0.0969133 -25.594 -2.8682 14.8221 -27.8343 0.53168 -0.201741 -18.707 0.34622 -0.163129 -26.6476 -3.49116 14.7147 -30.5743 0.00465721 -0.375344 -14.7491 -0.0228252 -0.181308 -43.3251 -8.39083 13.6911 -20.1823 -1.16718 -0.265408 -9.70957 -0.581541 0.0395647 4.33557e-07 7.5709e-16 0 41.329 -29.2776 94.6064 -8.54262e-07 3.7214e-06 78.9871 -105.963 -73.2723 -90 16.2187 17.878 -29.0005 6.56887 9.42389 -13.5345 -1.97291 11.6724 -21.4769 28.9474 -2.34252 -14.3298 10.6259 0.415332 0.104678 8.31772 0.323495 0.0969133 8.93079 -0.957561 -14.8986 89.6383 1.72073 -0.176939 64.0994 1.28898 0.137056 36.6434 -4.90015 -14.5902 89.988 0.552794 0.927877 51.8857 0.135817 0.654913 71.9487 -14.1099 -12.1203 85.5705 -2.78542 3.82303 38.9295 -2.04375 1.05572 0.768809 -0.50245 0 -0.473603 5.01843 0 -5.81436 -0.861368 -0.356082 -0.00227665 -0.820967 -0.30901 0.398796 -9.39555 0.0395647 0.514843 23.5936 -0.223812 -6.48721 -10.502 -1.2851 0.0022281 -0.806577 0.311533 
159.536 241.815 2.95331 5.74487 -3.7986 -1.00793 0.269556 -0.240814 2.00147 4.23552e-07 -6.67011e-09 0 -0.125801 -0.123412 1.43692 6.07342 -19.3017 0.500458 -6.93841 53.826 2.68201 -1.33402e-08 -4.40227e-07 0 -9.81515 -57.7597 -75.6917 -3.35899e-06 5.1596e-06 -46.4901 109.254 -68.6759 90 -16.1352 17.8743 29.031 -1.87254 6.72653 10.6575 0.811901 2.45614 4.67147 -24.9069 -2.13371 14.9508 -10.4228 0.407695 0.0969133 -9.66844 0.377658 0.0969133 -25.0513 -2.80408 14.823 -27.349 0.521658 -0.197823 -18.1853 0.33586 -0.153233 -26.4083 -3.4579 14.7169 -30.306 0.00374881 -0.369035 -14.4496 -0.0228269 -0.172458 -41.4047 -8.02159 13.7824 -20.1408 -1.16497 -0.262442 -9.59231 -0.574709 0.0395647 -1.33402e-08 -4.40227e-07 0 40.7522 -29.8307 94.6593 -1.11219e-07 -1.06031e-05 78.9998 -105.841 -72.5722 -90 16.2188 17.8781 -29.0005 6.5011 9.2455 -13.1916 -1.97722 11.4162 -21.0113 28.9771 -2.30882 -14.1895 10.7737 0.421236 0.111906 8.45554 0.328958 0.0969133 8.65731 -0.92639 -14.9012 89.6392 1.72074 -0.185575 64.1714 1.29038 0.137056 35.5761 -4.74778 -14.6031 89.9887 0.552803 0.929562 51.6725 0.134085 0.650115 71.3409 -13.9795 -12.1542 83.7352 -2.80155 3.70744 39.4256 -2.06323 1.08136 0.611398 1.485 0 -0.471812 0.893107 0.0395647 -5.95301 1.53103 0.0969133 -0.00228053 -0.819675 -0.303902 0.246672 -9.41092 0 0.514557 23.512 -0.209357 -6.62445 -10.1345 -1.06385 0.00222847 -0.807892 0.30901 
159.297 241.901 2.5895 6.00119 -3.98883 -1.13227 0.276274 -0.24077 2.16455 -1.55301e-18 3.33505e-09 0 -0.15376 -0.125842 1.56019 5.1314 -19.2341 0.822338 -6.80872 53.0441 2.61192 4.33557e-07 1.33402e-08 0 -11.4024 -57.5037 -76.6204 -6.55512e-06 -6.44873e-06 -47.3347 109.652 -69.3458 90 -16.1378 17.8754 29.0314 -1.02625 6.495 10.6899 0.799245 2.41203 4.58896 -24.6459 -2.10978 14.9479 -10.2485 0.400748 0.104678 -9.58832 0.374472 0.104678 -24.5422 -2.74403 14.8238 -26.5962 0.50614 -0.205584 -17.4843 0.32199 -0.148037 -26.0977 -3.4148 14.7201 -29.9358 0.00252013 -0.366908 -14.2098 -0.0228142 -0.167859 -39.7146 -7.69586 13.8578 -19.9969 -1.15729 -0.265408 -9.56203 -0.572944 0 4.33557e-07 1.33402e-08 0 40.3422 -30.0488 94.9388 -6.19477e-06 4.85631e-06 78.754 -105.828 -72.1544 -90 16.2188 17.8781 -29.0005 6.31434 9.00146 -12.7762 -1.97955 11.1185 -20.4705 29.0219 -2.26817 -14.0177 10.9397 0.427868 0.111906 8.55623 0.332951 0.0884693 8.46747 -0.904745 -14.9029 89.6399 1.72075 -0.185575 64.1853 1.29065 0.137056 34.3841 -4.57835 -14.6175 89.9892 0.55281 0.927877 51.4514 0.132296 0.650115 70.6202 -13.8258 -12.195 81.6083 -2.8154 3.57194 40.0461 -2.08729 1.11064 0.480202 2.51056 0 -0.471891 -1.2816 0.068528 -6.09566 2.84252 0.40926 -7.80402e-07 0.0039088 0 0.120891 -9.27456 0 0.512973 23.1113 -0.223812 -6.75947 -9.69758 -0.915991 0.00223189 -0.806696 0.314035 
159.238 242.027 2.38788 6.01596 -4.08719 -1.16632 0.254543 -0.247207 2.25279 -3.33505e-09 -4.30222e-07 0 -0.185819 -0.130052 1.63466 4.36378 -18.9291 0.90999 -6.63271 52.1736 2.526 2.00103e-08 4.40227e-07 0 -13.8161 -57.2807 -78.4183 6.99104e-07 1.55787e-06 -48.3368 109.769 -69.3661 90 -16.1396 17.8762 29.0317 0.115357 5.9922 10.3978 0.783187 2.3564 4.4849 -24.3275 -2.08072 14.9451 -10.0418 0.392519 0.0969133 -9.54668 0.372816 0.0969133 -24.0479 -2.68585 14.8247 -25.5922 0.485504 -0.193827 -16.6139 0.304848 -0.125115 -25.7339 -3.36437 14.7239 -29.4498 0.000950724 -0.364768 -14.0107 -0.0227943 -0.172458 -38.3483 -7.43164 13.9139 -19.7564 -1.14445 -0.253338 -9.60954 -0.575714 0.0395647 2.00103e-08 4.40227e-07 0 40.1886 -29.7305 95.257 -1.91063e-06 5.05041e-06 78.3143 -106.594 -71.486 -90 16.2188 17.8781 -29.0005 6.03367 8.71725 -12.3331 -1.97877 10.7855 -19.8664 29.0895 -2.22181 -13.8171 11.0951 0.434082 0.111906 8.57989 0.33389 0.0791294 8.37066 -0.893698 -14.9035 89.6404 1.72076 -0.185575 64.0838 1.28868 0.137056 33.1763 -4.40725 -14.6316 89.9895 0.552815 0.929562 51.1724 0.130052 0.645281 69.8116 -13.6543 -12.2402 79.2646 -2.82466 3.42287 40.7433 -2.11392 1.14602 0.492295 2.48832 0 -0.471873 -1.28162 0 -6.12729 2.95897 0.451107 1.40064e-07 0.00459649 0 0.134321 -8.91314 0.0884693 0.509952 22.293 -0.197823 -6.782 -9.14826 -0.833681 0.00223252 -0.807407 0.303902 
